<svg xmlns="http://www.w3.org/2000/svg" version="1.1" xmlns:xlink="http://www.w3.org/1999/xlink" xmlns:svgjs="http://svgjs.dev/svgjs" width="1500" height="1500" viewBox="0 0 1500 1500"><rect width="1500" height="1500" fill="#000000"></rect><g transform="matrix(0.6666666666666666,0,0,0.6666666666666666,249.39393939393938,438.5856950067477)"><svg viewBox="0 0 396 247" data-background-color="#001f3f" preserveAspectRatio="xMidYMid meet" height="935" width="1500" xmlns="http://www.w3.org/2000/svg" xmlns:xlink="http://www.w3.org/1999/xlink"><g id="tight-bounds" transform="matrix(1,0,0,1,0.2400000000000091,-0.09999999999999432)"><svg viewBox="0 0 395.52 247.2" height="247.2" width="395.52"><rect width="395.52" height="247.2" fill="#ffffff" mask="url(#e5cfe252-380c-4aca-8ddd-db84999ab72c)" data-fill-palette-color="tertiary"></rect><g><svg></svg></g><g><svg viewBox="0 0 395.52 247.2" height="247.2" width="395.52"><g transform="matrix(1,0,0,1,75.54432,53.86442199111137)"><svg viewBox="0 0 244.43135999999998 139.47115601777725" height="139.47115601777725" width="244.43135999999998"><g><svg viewBox="0 0 244.43135999999998 139.47115601777725" height="139.47115601777725" width="244.43135999999998"><g><svg viewBox="0 0 244.43135999999998 139.47115601777725" height="139.47115601777725" width="244.43135999999998"><g><svg viewBox="0 0 244.43135999999998 139.47115601777725" height="139.47115601777725" width="244.43135999999998"><g id="textblocktransform"><svg viewBox="0 0 244.43135999999998 139.47115601777725" height="139.47115601777725" width="244.43135999999998" id="textblock"><g><svg viewBox="0 0 244.43135999999998 97.1992508315565" height="97.1992508315565" width="244.43135999999998"><g transform="matrix(1,0,0,1,0,0)"><svg width="244.43135999999998" viewBox="2 -25.9 93.79 37.3" height="97.1992508315565" data-palette-color="url(#66d4b482-fd96-4f1c-9b07-d3afe1f9435d)"></svg></g></svg></g><g transform="matrix(1,0,0,1,0,120.14566117086703)"><svg viewBox="0 0 244.43135999999998 19.325494846910225" height="19.325494846910225" width="244.43135999999998"><g transform="matrix(1,0,0,1,0,0)"><svg width="244.43135999999998" viewBox="1.55 -45.15 625.38 49.449999999999996" height="19.325494846910225" data-palette-color="#b421e5"><path d="M10.75 0.4Q6.1 0.4 3.83-2.88 1.55-6.15 1.55-12.8L1.55-12.8 1.55-31.3Q1.55-37.25 4.2-40.3 6.85-43.35 12.1-43.35L12.1-43.35Q16.35-43.35 18.7-41.65 21.05-39.95 21.95-36.7 22.85-33.45 22.85-28.35L22.85-28.35 14.45-28.35 14.45-32.2Q14.45-33.75 14.03-34.6 13.6-35.45 12.5-35.45L12.5-35.45Q10.05-35.45 10.05-32.25L10.05-32.25 10.05-11.45Q10.05-9.5 10.55-8.5 11.05-7.5 12.3-7.5L12.3-7.5Q13.55-7.5 14.05-8.5 14.55-9.5 14.55-11.45L14.55-11.45 14.55-17.6 12.25-17.6 12.25-25 22.75-25 22.75 0 19.3 0 17.85-3.6Q15.55 0.4 10.75 0.4L10.75 0.4ZM36.25 0.4Q30.6 0.4 28.15-2.7 25.7-5.8 25.7-11.95L25.7-11.95 25.7-26.65Q25.7-31.7 28.6-34.35 31.5-37 36.7-37L36.7-37Q47.25-37 47.25-26.65L47.25-26.65 47.25-24Q47.25-20 47.15-17.5L47.15-17.5 34.45-17.5 34.45-10.4Q34.45-8.5 34.85-7.43 35.25-6.35 36.55-6.35L36.55-6.35Q37.55-6.35 37.97-6.95 38.4-7.55 38.47-8.33 38.55-9.1 38.55-10.6L38.55-10.6 38.55-14.15 47.25-14.15 47.25-12.05Q47.25-5.65 44.77-2.63 42.3 0.4 36.25 0.4L36.25 0.4ZM34.4-21.85L38.55-21.85 38.55-26.55Q38.55-30.5 36.6-30.5L36.6-30.5Q34.4-30.5 34.4-26.55L34.4-26.55 34.4-21.85ZM60.45 0.4Q49.6 0.4 49.6-10.6L49.6-10.6 49.65-13.5 58.4-13.5 58.45-9.2Q58.45-7.9 58.95-7.23 59.45-6.55 60.6-6.55L60.6-6.55Q62.35-6.55 62.35-9.4L62.35-9.4Q62.35-11.5 61.52-12.7 60.7-13.9 58.9-15.25L58.9-15.25 54.25-18.85Q51.85-20.7 50.8-22.68 49.75-24.65 49.75-28.25L49.75-28.25Q49.75-31.05 51.22-33.02 52.7-35 55.15-36 57.6-37 60.6-37L60.6-37Q71.25-37 71.25-26.4L71.25-26.4 71.25-25.7 62.2-25.7 62.2-27.1Q62.2-28.4 61.77-29.33 61.35-30.25 60.35-30.25L60.35-30.25Q59.45-30.25 58.97-29.73 58.5-29.2 58.5-28.3L58.5-28.3Q58.5-26.3 60.05-25.2L60.05-25.2 65.45-21.25Q68.34-19.1 69.9-16.57 71.45-14.05 71.45-10.2L71.45-10.2Q71.45-5.1 68.55-2.35 65.65 0.4 60.45 0.4L60.45 0.4ZM81.69 0.4Q78.24 0.4 76.94-1.05 75.64-2.5 75.64-5.7L75.64-5.7 75.64-28.55 73.19-28.55 73.19-35.2 75.64-35.2 75.64-42.95 84.14-42.95 84.14-35.2 86.64-35.2 86.64-28.55 84.14-28.55 84.14-8Q84.14-7.05 84.29-6.6 84.44-6.15 85.09-6.15L85.09-6.15Q85.59-6.15 86.04-6.2 86.49-6.25 86.64-6.25L86.64-6.25 86.64-0.25Q85.89-0.05 84.47 0.18 83.04 0.4 81.69 0.4L81.69 0.4ZM100.04 0.4Q89.09 0.4 89.09-10.95L89.09-10.95 89.09-25.65Q89.09-30.85 92.02-33.93 94.94-37 100.04-37L100.04-37Q105.14-37 108.07-33.93 110.99-30.85 110.99-25.65L110.99-25.65 110.99-10.95Q110.99 0.4 100.04 0.4L100.04 0.4ZM100.04-6.35Q101.09-6.35 101.59-7.1 102.09-7.85 102.09-9.15L102.09-9.15 102.09-27.05Q102.09-30.25 100.04-30.25L100.04-30.25Q97.99-30.25 97.99-27.05L97.99-27.05 97.99-9.15Q97.99-7.85 98.49-7.1 98.99-6.35 100.04-6.35L100.04-6.35ZM114.24 0L114.24-36.6 122.99-36.6 122.99-32.55Q123.64-34.7 125.26-35.88 126.89-37.05 129.29-37.05L129.29-37.05 129.29-29.75Q127.44-29.75 125.21-29.23 122.99-28.7 122.99-28L122.99-28 122.99 0 114.24 0ZM150.33 0.4Q147.13 0.4 145.51-1.13 143.88-2.65 143.36-5.18 142.83-7.7 142.83-11.65L142.83-11.65 142.93-28.15Q142.93-32.05 144.91-34.52 146.88-37 150.48-37L150.48-37Q154.03-37 155.78-34.65L155.78-34.65 155.78-43.2 164.53-43.2 164.53 0 155.78 0 155.78-3.9Q155.03-1.75 153.76-0.68 152.48 0.4 150.33 0.4L150.33 0.4ZM153.68-6.45Q154.98-6.45 155.38-7.73 155.78-9 155.78-11.15L155.78-11.15 155.78-12.7 155.78-26.45Q155.78-28.05 155.33-29.15 154.88-30.25 153.73-30.25L153.73-30.25Q152.43-30.25 152.01-29.23 151.58-28.2 151.58-26.45L151.58-26.45 151.58-11.05Q151.58-6.45 153.68-6.45L153.68-6.45ZM178.28 0.4Q172.63 0.4 170.18-2.7 167.73-5.8 167.73-11.95L167.73-11.95 167.73-26.65Q167.73-31.7 170.63-34.35 173.53-37 178.73-37L178.73-37Q189.28-37 189.28-26.65L189.28-26.65 189.28-24Q189.28-20 189.18-17.5L189.18-17.5 176.48-17.5 176.48-10.4Q176.48-8.5 176.88-7.43 177.28-6.35 178.58-6.35L178.58-6.35Q179.58-6.35 180-6.95 180.43-7.55 180.5-8.33 180.58-9.1 180.58-10.6L180.58-10.6 180.58-14.15 189.28-14.15 189.28-12.05Q189.28-5.65 186.81-2.63 184.33 0.4 178.28 0.4L178.28 0.4ZM176.43-21.85L180.58-21.85 180.58-26.55Q180.58-30.5 178.63-30.5L178.63-30.5Q176.43-30.5 176.43-26.55L176.43-26.55 176.43-21.85ZM204.28 0L204.28-42.95 215.63-42.95Q220.78-42.95 222.97-39.63 225.18-36.3 225.18-29.9L225.18-29.9Q225.18-23.5 223.22-20.25 221.28-17 216.22-17L216.22-17 212.72-17 212.72 0 204.28 0ZM212.72-24.75L213.22-24.75Q214.78-24.75 215.5-25.33 216.22-25.9 216.45-26.98 216.68-28.05 216.68-30.05L216.68-30.05Q216.68-32.75 216.07-33.95 215.47-35.15 213.68-35.15L213.68-35.15 212.72-35.15 212.72-24.75ZM227.72 0L227.72-36.6 236.47-36.6 236.47-32.55Q237.12-34.7 238.75-35.88 240.37-37.05 242.77-37.05L242.77-37.05 242.77-29.75Q240.92-29.75 238.7-29.23 236.47-28.7 236.47-28L236.47-28 236.47 0 227.72 0ZM255.57 0.4Q244.62 0.4 244.62-10.95L244.62-10.95 244.62-25.65Q244.62-30.85 247.54-33.93 250.47-37 255.57-37L255.57-37Q260.67-37 263.59-33.93 266.52-30.85 266.52-25.65L266.52-25.65 266.52-10.95Q266.52 0.4 255.57 0.4L255.57 0.4ZM255.57-6.35Q256.62-6.35 257.12-7.1 257.62-7.85 257.62-9.15L257.62-9.15 257.62-27.05Q257.62-30.25 255.57-30.25L255.57-30.25Q253.52-30.25 253.52-27.05L253.52-27.05 253.52-9.15Q253.52-7.85 254.02-7.1 254.52-6.35 255.57-6.35L255.57-6.35ZM279.47-39.05L270.72-39.05 270.72-45.15 279.47-45.15 279.47-39.05ZM272.57 4.3Q269.72 4.3 268.87 3.65L268.87 3.65 268.87-2.2Q269.12-2.1 269.67-2.1L269.67-2.1Q270.32-2.1 270.52-2.53 270.72-2.95 270.72-3.8L270.72-3.8 270.72-36.6 279.47-36.6 279.47-4.05Q279.47 0 277.82 2.15 276.17 4.3 272.57 4.3L272.57 4.3ZM293.16 0.4Q287.51 0.4 285.06-2.7 282.61-5.8 282.61-11.95L282.61-11.95 282.61-26.65Q282.61-31.7 285.51-34.35 288.41-37 293.61-37L293.61-37Q304.16-37 304.16-26.65L304.16-26.65 304.16-24Q304.16-20 304.06-17.5L304.06-17.5 291.36-17.5 291.36-10.4Q291.36-8.5 291.76-7.43 292.16-6.35 293.46-6.35L293.46-6.35Q294.46-6.35 294.89-6.95 295.31-7.55 295.39-8.33 295.46-9.1 295.46-10.6L295.46-10.6 295.46-14.15 304.16-14.15 304.16-12.05Q304.16-5.65 301.69-2.63 299.21 0.4 293.16 0.4L293.16 0.4ZM291.31-21.85L295.46-21.85 295.46-26.55Q295.46-30.5 293.51-30.5L293.51-30.5Q291.31-30.5 291.31-26.55L291.31-26.55 291.31-21.85ZM314.86 0.4Q311.41 0.4 310.11-1.05 308.81-2.5 308.81-5.7L308.81-5.7 308.81-28.55 306.36-28.55 306.36-35.2 308.81-35.2 308.81-42.95 317.31-42.95 317.31-35.2 319.81-35.2 319.81-28.55 317.31-28.55 317.31-8Q317.31-7.05 317.46-6.6 317.61-6.15 318.26-6.15L318.26-6.15Q318.76-6.15 319.21-6.2 319.66-6.25 319.81-6.25L319.81-6.25 319.81-0.25Q319.06-0.05 317.64 0.18 316.21 0.4 314.86 0.4L314.86 0.4ZM333.21 0.4Q322.26 0.4 322.26-10.95L322.26-10.95 322.26-25.65Q322.26-30.85 325.18-33.93 328.11-37 333.21-37L333.21-37Q338.31-37 341.23-33.93 344.16-30.85 344.16-25.65L344.16-25.65 344.16-10.95Q344.16 0.4 333.21 0.4L333.21 0.4ZM333.21-6.35Q334.26-6.35 334.76-7.1 335.26-7.85 335.26-9.15L335.26-9.15 335.26-27.05Q335.26-30.25 333.21-30.25L333.21-30.25Q331.16-30.25 331.16-27.05L331.16-27.05 331.16-9.15Q331.16-7.85 331.66-7.1 332.16-6.35 333.21-6.35L333.21-6.35ZM357.46 0.4Q346.61 0.4 346.61-10.6L346.61-10.6 346.66-13.5 355.41-13.5 355.46-9.2Q355.46-7.9 355.96-7.23 356.46-6.55 357.61-6.55L357.61-6.55Q359.36-6.55 359.36-9.4L359.36-9.4Q359.36-11.5 358.53-12.7 357.71-13.9 355.91-15.25L355.91-15.25 351.26-18.85Q348.86-20.7 347.81-22.68 346.76-24.65 346.76-28.25L346.76-28.25Q346.76-31.05 348.23-33.02 349.71-35 352.16-36 354.61-37 357.61-37L357.61-37Q368.26-37 368.26-26.4L368.26-26.4 368.26-25.7 359.21-25.7 359.21-27.1Q359.21-28.4 358.78-29.33 358.36-30.25 357.36-30.25L357.36-30.25Q356.46-30.25 355.98-29.73 355.51-29.2 355.51-28.3L355.51-28.3Q355.51-26.3 357.06-25.2L357.06-25.2 362.46-21.25Q365.36-19.1 366.91-16.57 368.46-14.05 368.46-10.2L368.46-10.2Q368.46-5.1 365.56-2.35 362.66 0.4 357.46 0.4L357.46 0.4ZM393.1 0.4Q387.45 0.4 385-2.7 382.55-5.8 382.55-11.95L382.55-11.95 382.55-26.65Q382.55-31.7 385.45-34.35 388.35-37 393.55-37L393.55-37Q404.1-37 404.1-26.65L404.1-26.65 404.1-24Q404.1-20 404-17.5L404-17.5 391.3-17.5 391.3-10.4Q391.3-8.5 391.7-7.43 392.1-6.35 393.4-6.35L393.4-6.35Q394.4-6.35 394.83-6.95 395.25-7.55 395.33-8.33 395.4-9.1 395.4-10.6L395.4-10.6 395.4-14.15 404.1-14.15 404.1-12.05Q404.1-5.65 401.63-2.63 399.15 0.4 393.1 0.4L393.1 0.4ZM391.25-21.85L395.4-21.85 395.4-26.55Q395.4-30.5 393.45-30.5L393.45-30.5Q391.25-30.5 391.25-26.55L391.25-26.55 391.25-21.85ZM419.1 0L419.1-42.95 430.45-42.95Q435.6-42.95 437.8-39.63 440-36.3 440-29.9L440-29.9Q440-23.5 438.05-20.25 436.1-17 431.05-17L431.05-17 427.55-17 427.55 0 419.1 0ZM427.55-24.75L428.05-24.75Q429.6-24.75 430.32-25.33 431.05-25.9 431.27-26.98 431.5-28.05 431.5-30.05L431.5-30.05Q431.5-32.75 430.9-33.95 430.3-35.15 428.5-35.15L428.5-35.15 427.55-35.15 427.55-24.75ZM442.54 0L442.54-36.6 451.29-36.6 451.29-32.55Q451.94-34.7 453.57-35.88 455.19-37.05 457.59-37.05L457.59-37.05 457.59-29.75Q455.74-29.75 453.52-29.23 451.29-28.7 451.29-28L451.29-28 451.29 0 442.54 0ZM470.39 0.4Q459.44 0.4 459.44-10.95L459.44-10.95 459.44-25.65Q459.44-30.85 462.37-33.93 465.29-37 470.39-37L470.39-37Q475.49-37 478.42-33.93 481.34-30.85 481.34-25.65L481.34-25.65 481.34-10.95Q481.34 0.4 470.39 0.4L470.39 0.4ZM470.39-6.35Q471.44-6.35 471.94-7.1 472.44-7.85 472.44-9.15L472.44-9.15 472.44-27.05Q472.44-30.25 470.39-30.25L470.39-30.25Q468.34-30.25 468.34-27.05L468.34-27.05 468.34-9.15Q468.34-7.85 468.84-7.1 469.34-6.35 470.39-6.35L470.39-6.35ZM495.59 0.4Q489.59 0.4 486.94-2.65 484.29-5.7 484.29-12L484.29-12 484.29-23.3Q484.29-28.05 485.31-31.03 486.34-34 488.76-35.5 491.19-37 495.49-37L495.49-37Q500.19-37 503.14-34.55 506.09-32.1 506.09-27.7L506.09-27.7 506.09-22.1 497.19-22.1 497.19-27.25Q497.19-28.7 496.79-29.48 496.39-30.25 495.24-30.25L495.24-30.25Q493.09-30.25 493.09-27.2L493.09-27.2 493.09-9.45Q493.09-8.2 493.61-7.33 494.14-6.45 495.19-6.45L495.19-6.45Q496.24-6.45 496.76-7.3 497.29-8.15 497.24-9.5L497.24-9.5 497.19-15.65 506.09-15.65 506.09-9.25Q506.09-4.75 503.16-2.18 500.24 0.4 495.59 0.4L495.59 0.4ZM519.39 0.4Q513.74 0.4 511.29-2.7 508.84-5.8 508.84-11.95L508.84-11.95 508.84-26.65Q508.84-31.7 511.74-34.35 514.64-37 519.84-37L519.84-37Q530.39-37 530.39-26.65L530.39-26.65 530.39-24Q530.39-20 530.29-17.5L530.29-17.5 517.59-17.5 517.59-10.4Q517.59-8.5 517.99-7.43 518.39-6.35 519.69-6.35L519.69-6.35Q520.69-6.35 521.11-6.95 521.54-7.55 521.61-8.33 521.69-9.1 521.69-10.6L521.69-10.6 521.69-14.15 530.39-14.15 530.39-12.05Q530.39-5.65 527.91-2.63 525.44 0.4 519.39 0.4L519.39 0.4ZM517.54-21.85L521.69-21.85 521.69-26.55Q521.69-30.5 519.74-30.5L519.74-30.5Q517.54-30.5 517.54-26.55L517.54-26.55 517.54-21.85ZM543.58 0.4Q532.74 0.4 532.74-10.6L532.74-10.6 532.78-13.5 541.53-13.5 541.58-9.2Q541.58-7.9 542.08-7.23 542.58-6.55 543.74-6.55L543.74-6.55Q545.49-6.55 545.49-9.4L545.49-9.4Q545.49-11.5 544.66-12.7 543.83-13.9 542.03-15.25L542.03-15.25 537.38-18.85Q534.99-20.7 533.93-22.68 532.88-24.65 532.88-28.25L532.88-28.25Q532.88-31.05 534.36-33.02 535.83-35 538.28-36 540.74-37 543.74-37L543.74-37Q554.38-37 554.38-26.4L554.38-26.4 554.38-25.7 545.33-25.7 545.33-27.1Q545.33-28.4 544.91-29.33 544.49-30.25 543.49-30.25L543.49-30.25Q542.58-30.25 542.11-29.73 541.63-29.2 541.63-28.3L541.63-28.3Q541.63-26.3 543.18-25.2L543.18-25.2 548.58-21.25Q551.49-19.1 553.03-16.57 554.58-14.05 554.58-10.2L554.58-10.2Q554.58-5.1 551.68-2.35 548.78 0.4 543.58 0.4L543.58 0.4ZM567.33 0.4Q556.48 0.4 556.48-10.6L556.48-10.6 556.53-13.5 565.28-13.5 565.33-9.2Q565.33-7.9 565.83-7.23 566.33-6.55 567.48-6.55L567.48-6.55Q569.23-6.55 569.23-9.4L569.23-9.4Q569.23-11.5 568.41-12.7 567.58-13.9 565.78-15.25L565.78-15.25 561.13-18.85Q558.73-20.7 557.68-22.68 556.63-24.65 556.63-28.25L556.63-28.25Q556.63-31.05 558.11-33.02 559.58-35 562.03-36 564.48-37 567.48-37L567.48-37Q578.13-37 578.13-26.4L578.13-26.4 578.13-25.7 569.08-25.7 569.08-27.1Q569.08-28.4 568.66-29.33 568.23-30.25 567.23-30.25L567.23-30.25Q566.33-30.25 565.86-29.73 565.38-29.2 565.38-28.3L565.38-28.3Q565.38-26.3 566.93-25.2L566.93-25.2 572.33-21.25Q575.23-19.1 576.78-16.57 578.33-14.05 578.33-10.2L578.33-10.2Q578.33-5.1 575.43-2.35 572.53 0.4 567.33 0.4L567.33 0.4ZM591.68 0.4Q580.73 0.4 580.73-10.95L580.73-10.95 580.73-25.65Q580.73-30.85 583.65-33.93 586.58-37 591.68-37L591.68-37Q596.78-37 599.7-33.93 602.63-30.85 602.63-25.65L602.63-25.65 602.63-10.95Q602.63 0.4 591.68 0.4L591.68 0.4ZM591.68-6.35Q592.73-6.35 593.23-7.1 593.73-7.85 593.73-9.15L593.73-9.15 593.73-27.05Q593.73-30.25 591.68-30.25L591.68-30.25Q589.63-30.25 589.63-27.05L589.63-27.05 589.63-9.15Q589.63-7.85 590.13-7.1 590.63-6.35 591.68-6.35L591.68-6.35ZM615.93 0.4Q605.08 0.4 605.08-10.6L605.08-10.6 605.13-13.5 613.88-13.5 613.93-9.2Q613.93-7.9 614.43-7.23 614.93-6.55 616.08-6.55L616.08-6.55Q617.83-6.55 617.83-9.4L617.83-9.4Q617.83-11.5 617-12.7 616.18-13.9 614.38-15.25L614.38-15.25 609.73-18.85Q607.33-20.7 606.28-22.68 605.23-24.65 605.23-28.25L605.23-28.25Q605.23-31.05 606.7-33.02 608.18-35 610.63-36 613.08-37 616.08-37L616.08-37Q626.73-37 626.73-26.4L626.73-26.4 626.73-25.7 617.68-25.7 617.68-27.1Q617.68-28.4 617.25-29.33 616.83-30.25 615.83-30.25L615.83-30.25Q614.93-30.25 614.45-29.73 613.98-29.2 613.98-28.3L613.98-28.3Q613.98-26.3 615.53-25.2L615.53-25.2 620.93-21.25Q623.83-19.1 625.38-16.57 626.93-14.05 626.93-10.2L626.93-10.2Q626.93-5.1 624.03-2.35 621.13 0.4 615.93 0.4L615.93 0.4Z" opacity="1" transform="matrix(1,0,0,1,0,0)" fill="#ffffff" class="slogan-text-1" data-fill-palette-color="secondary" id="text-1"></path></svg></g></svg></g></svg></g></svg></g></svg></g></svg></g></svg></g><g><path d="M245.816 0c68.262 0 123.6 55.338 123.6 123.6 0 68.262-55.338 123.6-123.6 123.6-37.178 0-70.522-16.414-93.18-42.391l5.899 0c21.766 23.383 52.816 38.008 87.281 38.008 65.842 0 119.217-53.375 119.217-119.217 0-65.842-53.375-119.217-119.217-119.217-34.466 0-65.515 14.625-87.281 38.008l-5.899 0c22.658-25.977 56.002-42.391 93.18-42.391z" fill="#ffffff" stroke="transparent" data-fill-palette-color="tertiary"></path></g></svg></g><defs></defs><mask id="2dbb9604-48b9-40e2-bef3-aa42889d8c94"><g id="SvgjsG1290"><svg viewBox="0 0 395.52 247.2" height="247.2" width="395.52"><g><svg></svg></g><g><svg viewBox="0 0 395.52 247.2" height="247.2" width="395.52"><g transform="matrix(1,0,0,1,75.54432,53.86442199111137)"><svg viewBox="0 0 244.43135999999998 139.47115601777725" height="139.47115601777725" width="244.43135999999998"><g><svg viewBox="0 0 244.43135999999998 139.47115601777725" height="139.47115601777725" width="244.43135999999998"><g><svg viewBox="0 0 244.43135999999998 139.47115601777725" height="139.47115601777725" width="244.43135999999998"><g><svg viewBox="0 0 244.43135999999998 139.47115601777725" height="139.47115601777725" width="244.43135999999998"><g id="SvgjsG1289"><svg viewBox="0 0 244.43135999999998 139.47115601777725" height="139.47115601777725" width="244.43135999999998" id="SvgjsSvg1288"><g><svg viewBox="0 0 244.43135999999998 97.1992508315565" height="97.1992508315565" width="244.43135999999998"><g transform="matrix(1,0,0,1,0,0)"><svg width="244.43135999999998" viewBox="2 -25.9 93.79 37.3" height="97.1992508315565" data-palette-color="url(#66d4b482-fd96-4f1c-9b07-d3afe1f9435d)"><path d="M21.4-21L21.4-21 21-21.05Q20.55-24.15 18.75-24.15L18.75-24.15Q17.85-24.15 17.1-23.2 16.35-22.25 16.2-20.7L16.2-20.7Q18.9-18.65 18.9-15 18.9-11.35 16.78-9.38 14.65-7.4 11.25-7.4L11.25-7.4 6.8-7.4Q5.55-7.4 4.88-6.7 4.2-6 4.2-5.05 4.2-4.1 4.88-3.4 5.55-2.7 6.8-2.7L6.8-2.7 15.15-2.7Q18.15-2.7 19.68-1.33 21.2 0.05 21.2 2.15L21.2 2.15Q21.2 5.5 18.05 8.45 14.9 11.4 10.2 11.4L10.2 11.4Q6.6 11.4 4.35 9.7 2.1 8 2.1 5.4 2.1 2.8 4.85 0.4L4.85 0.4Q3.55 0.05 2.78-1.07 2-2.2 2-3.85 2-5.5 3.2-6.83 4.4-8.15 6.8-8.15L6.8-8.15 7.55-8.15Q3.65-9.95 3.65-14.8L3.65-14.8Q3.65-18.25 5.75-20.23 7.85-22.2 11.25-22.2L11.25-22.2Q13.5-22.2 15.2-21.3L15.2-21.3Q15.55-23.3 16.63-24.6 17.7-25.9 19.48-25.9 21.25-25.9 22.43-24.95 23.6-24 23.6-22.9L23.6-22.9Q23.6-21 21.4-21ZM15.15 0.6L15.15 0.6 6.4 0.6Q4.8 2.45 4.8 4.8 4.8 7.15 6.2 8.68 7.6 10.2 10.73 10.2 13.85 10.2 16.4 8 18.95 5.8 18.95 3.45L18.95 3.45Q18.95 2.2 18 1.4 17.05 0.6 15.15 0.6ZM8.35-19.4Q7.2-17.7 7.2-14.8 7.2-11.9 8.35-10.2 9.5-8.5 11.25-8.5 13-8.5 14.18-10.2 15.35-11.9 15.35-14.8 15.35-17.7 14.18-19.4 13-21.1 11.25-21.1 9.5-21.1 8.35-19.4ZM27.25 9.2L27.25 9.2 27.25-20Q27.25-20.7 26.55-20.7L26.55-20.7 24.2-20.7 24.2-21.6 26.65-21.6Q29.65-21.6 30.85-21.9L30.85-21.9 30.85-14.9Q31.7-18.5 33.57-20.35 35.45-22.2 37.75-22.2L37.75-22.2Q40.9-22.2 43.3-19.05 45.7-15.9 45.7-10.7 45.7-5.5 42.97-2.45 40.25 0.6 35.85 0.6L35.85 0.6Q33.1 0.6 30.85-0.75L30.85-0.75 30.85 9.2Q30.85 9.9 31.55 9.9L31.55 9.9 34.9 9.9 34.9 10.8 24.2 10.8 24.2 9.9 26.55 9.9Q27.25 9.9 27.25 9.2ZM41.9-10.6Q41.9-15.25 40.45-17.78 39-20.3 36.77-20.3 34.55-20.3 32.7-17.35 30.85-14.4 30.85-8.85L30.85-8.85 30.85-2.1Q33.05-0.65 35.67-0.65 38.3-0.65 40.1-3.3 41.9-5.95 41.9-10.6ZM52.25 9.2L52.25 9.2 52.25-20Q52.25-20.7 51.55-20.7L51.55-20.7 49.2-20.7 49.2-21.6 51.65-21.6Q54.65-21.6 55.85-21.9L55.85-21.9 55.85-14.9Q56.7-18.5 58.57-20.35 60.45-22.2 62.75-22.2L62.75-22.2Q65.9-22.2 68.3-19.05 70.7-15.9 70.7-10.7 70.7-5.5 67.97-2.45 65.25 0.6 60.85 0.6L60.85 0.6Q58.1 0.6 55.85-0.75L55.85-0.75 55.85 9.2Q55.85 9.9 56.55 9.9L56.55 9.9 59.9 9.9 59.9 10.8 49.2 10.8 49.2 9.9 51.55 9.9Q52.25 9.9 52.25 9.2ZM66.9-10.6Q66.9-15.25 65.45-17.78 64-20.3 61.77-20.3 59.55-20.3 57.7-17.35 55.85-14.4 55.85-8.85L55.85-8.85 55.85-2.1Q58.05-0.65 60.67-0.65 63.3-0.65 65.1-3.3 66.9-5.95 66.9-10.6ZM84.64-19.6L87.29-19.6 87.29-11.15 95.79-11.15 95.79-8.5 87.29-8.5 87.29 0 84.64 0 84.64-8.5 76.19-8.5 76.19-11.15 84.64-11.15 84.64-19.6Z" opacity="1" transform="matrix(1,0,0,1,0,0)" fill="white" class="wordmark-text-0" id="SvgjsPath1287"></path></svg></g></svg></g><g transform="matrix(1,0,0,1,0,120.14566117086703)"><svg viewBox="0 0 244.43135999999998 19.325494846910225" height="19.325494846910225" width="244.43135999999998"><g transform="matrix(1,0,0,1,0,0)"><svg width="244.43135999999998" viewBox="1.55 -45.15 625.38 49.449999999999996" height="19.325494846910225" data-palette-color="#b421e5"></svg></g></svg></g></svg></g></svg></g></svg></g></svg></g></svg></g><g></g></svg></g><defs><mask></mask></defs></svg></g></mask><linearGradient x1="0" x2="1" y1="0.548" y2="0.55" id="66d4b482-fd96-4f1c-9b07-d3afe1f9435d"><stop stop-color="#ff6cab" offset="0"></stop><stop stop-color="#7366ff" offset="1"></stop></linearGradient><rect width="395.52" height="247.2" fill="#ffffff" mask="url(#2dbb9604-48b9-40e2-bef3-aa42889d8c94)" data-fill-palette-color="primary"></rect><mask id="e5cfe252-380c-4aca-8ddd-db84999ab72c"><g id="SvgjsG1298"><svg viewBox="0 0 395.52 247.2" height="247.2" width="395.52"><g><svg></svg></g><g><svg viewBox="0 0 395.52 247.2" height="247.2" width="395.52"><g transform="matrix(1,0,0,1,75.54432,53.86442199111137)"><svg viewBox="0 0 244.43135999999998 139.47115601777725" height="139.47115601777725" width="244.43135999999998"><g><svg viewBox="0 0 244.43135999999998 139.47115601777725" height="139.47115601777725" width="244.43135999999998"><g><svg viewBox="0 0 244.43135999999998 139.47115601777725" height="139.47115601777725" width="244.43135999999998"><g><svg viewBox="0 0 244.43135999999998 139.47115601777725" height="139.47115601777725" width="244.43135999999998"><g id="SvgjsG1297"><svg viewBox="0 0 244.43135999999998 139.47115601777725" height="139.47115601777725" width="244.43135999999998" id="SvgjsSvg1296"><g><svg viewBox="0 0 244.43135999999998 97.1992508315565" height="97.1992508315565" width="244.43135999999998"><g transform="matrix(1,0,0,1,0,0)"><svg width="244.43135999999998" viewBox="2 -25.9 93.79 37.3" height="97.1992508315565" data-palette-color="url(#66d4b482-fd96-4f1c-9b07-d3afe1f9435d)"></svg></g></svg></g><g transform="matrix(1,0,0,1,0,120.14566117086703)"><svg viewBox="0 0 244.43135999999998 19.325494846910225" height="19.325494846910225" width="244.43135999999998"><g transform="matrix(1,0,0,1,0,0)"><svg width="244.43135999999998" viewBox="1.55 -45.15 625.38 49.449999999999996" height="19.325494846910225" data-palette-color="#b421e5"></svg></g></svg></g></svg></g></svg></g></svg></g></svg></g></svg></g><g><path d="M245.816 0c68.262 0 123.6 55.338 123.6 123.6 0 68.262-55.338 123.6-123.6 123.6-37.178 0-70.522-16.414-93.18-42.391l5.899 0c21.766 23.383 52.816 38.008 87.281 38.008 65.842 0 119.217-53.375 119.217-119.217 0-65.842-53.375-119.217-119.217-119.217-34.466 0-65.515 14.625-87.281 38.008l-5.899 0c22.658-25.977 56.002-42.391 93.18-42.391z" fill="white" stroke="transparent"></path></g></svg></g><defs><mask></mask></defs><mask><g id="SvgjsG1294"><svg viewBox="0 0 395.52 247.2" height="247.2" width="395.52"><g><svg></svg></g><g><svg viewBox="0 0 395.52 247.2" height="247.2" width="395.52"><g transform="matrix(1,0,0,1,75.54432,53.86442199111137)"><svg viewBox="0 0 244.43135999999998 139.47115601777725" height="139.47115601777725" width="244.43135999999998"><g><svg viewBox="0 0 244.43135999999998 139.47115601777725" height="139.47115601777725" width="244.43135999999998"><g><svg viewBox="0 0 244.43135999999998 139.47115601777725" height="139.47115601777725" width="244.43135999999998"><g><svg viewBox="0 0 244.43135999999998 139.47115601777725" height="139.47115601777725" width="244.43135999999998"><g id="SvgjsG1293"><svg viewBox="0 0 244.43135999999998 139.47115601777725" height="139.47115601777725" width="244.43135999999998" id="SvgjsSvg1292"><g><svg viewBox="0 0 244.43135999999998 97.1992508315565" height="97.1992508315565" width="244.43135999999998"><g transform="matrix(1,0,0,1,0,0)"><svg width="244.43135999999998" viewBox="2 -25.9 93.79 37.3" height="97.1992508315565" data-palette-color="url(#66d4b482-fd96-4f1c-9b07-d3afe1f9435d)"></svg></g></svg></g><g transform="matrix(1,0,0,1,0,120.14566117086703)"><svg viewBox="0 0 244.43135999999998 19.325494846910225" height="19.325494846910225" width="244.43135999999998"><g transform="matrix(1,0,0,1,0,0)"><svg width="244.43135999999998" viewBox="1.55 -45.15 625.38 49.449999999999996" height="19.325494846910225" data-palette-color="#b421e5"></svg></g></svg></g></svg></g></svg></g></svg></g></svg></g></svg></g><g></g></svg></g><defs><mask></mask></defs></svg></g></mask></svg></g></mask><linearGradient x1="0.054" x2="0.941" y1="0.5" y2="0.5" id="bb92e047-1f03-4437-95f6-e37f1ae5a8fd"><stop stop-color="#0f3054" offset="0"></stop><stop stop-color="#3b8dcb" offset="0.498"></stop><stop stop-color="#0f3054" offset="1"></stop></linearGradient></svg><rect width="395.52" height="247.2" fill="none" stroke="none" visibility="hidden"></rect></g></svg></g></svg>